<?xml version="1.0" encoding="UTF-8"?>
<svg xmlns="http://www.w3.org/2000/svg" version="1.1" viewBox="0 0 2867 1309">
  <defs>
    <style>
      .cls-1 {
        fill: #060505;
      }

      .cls-2 {
        fill: #870e0d;
      }

      .cls-3 {
        fill: #fbfbfb;
      }

      .cls-4 {
        fill: #040303;
      }

      .cls-5 {
        fill: #050303;
      }
    </style>
  </defs>
  <!-- Generator: Adobe Illustrator 28.7.1, SVG Export Plug-In . SVG Version: 1.2.0 Build 142)  -->
  <g>
    <g id="Ebene_1">
      <path class="cls-3" d="M13.8-4.5h1272.3v1309H13.8V-4.5Z"/>
      <path class="cls-2" d="M574,159c20.2,0,40.3,0,60.5,0q1.2,0,2.4,0c62.4,0,124.8.2,187.2.6,1.1,0,2.2,0,3.3,0,27.9.2,55.8.3,83.6.5-.6,3.2-1.3,6.1-2.5,9.1-.3.8-.6,1.6-.9,2.4-.3.8-.7,1.7-1,2.5-.3.9-.7,1.7-1,2.6-1.1,2.8-2.2,5.6-3.3,8.4-.7,1.8-1.4,3.7-2.2,5.5-1.1,2.7-2.1,5.4-3.2,8.1q-5.4,13.7-10.5,27.6c-2,5.7-4.2,11.2-6.4,16.8-3.8,9.4-7.5,18.9-11.1,28.4-1.6,4.3-3.3,8.6-5,12.9-1.3,3.3-2.6,6.6-3.8,10-1.5,4.1-3.1,7.9-5,11.8-2.2,4.7-4.1,9.5-5.8,14.4-3.7,10.8-8.1,21.4-12.4,32q-6.5,16.1-12.7,32.3c-3.2,8.5-6.5,16.9-9.8,25.3-1.1,2.9-2.3,5.8-3.4,8.7-.7,1.9-1.5,3.7-2.2,5.6-.3.9-.7,1.7-1,2.6-.3.8-.6,1.6-1,2.5-.3.7-.6,1.4-.8,2.1-1.2,2.8-2.6,5.5-4,8.2-.6,0-1.1,0-1.7,0-33.3,0-66.5,0-99.8.1-4,0-8,0-12,0q-1.2,0-2.4,0c-12.9,0-25.8,0-38.6,0-13.2,0-26.4,0-39.6,0-8.2,0-16.3,0-24.5,0-6.2,0-12.5,0-18.7,0-2.6,0-5.1,0-7.7,0-3.5,0-7,0-10.5,0-1,0-2.1,0-3.1,0-2.6,0-4.9.1-7.3.7q-2.2,2.2-3,5c-.3.8-.7,1.6-1,2.4q-.5,1.2-.9,2.5c-.3.9-.7,1.8-1,2.8-.3.9-.7,1.9-1.1,2.9-.7,1.9-1.4,3.8-2.1,5.6-.3.8-.6,1.7-.9,2.5q-.9,2.3-2.1,4.5c-.3.6-.5,1.2-.8,1.8.3.7.7,1.3,1,2-.5.4-.9.8-1.4,1.2-1.8,2-2.3,3.3-3,5.8-1.5,4.9-3.4,9.6-5.3,14.4-.3.9-.7,1.7-1.1,2.6-2.6,6.3-5.1,12.7-7.8,19-4.3,10.4-8.4,20.9-12.4,31.4-1,2.7-2.1,5.4-3.1,8.1-.2.6-.5,1.3-.8,2-1.4,3.7-2.9,7.4-4.4,11-1.4,3.4-2.6,6.9-3.8,10.4-1.1,3-2.3,5.9-3.5,8.8-.7,1.8-1.4,3.5-2.1,5.3-.4.9-.8,1.9-1.1,2.9-2.2,5.5-4.4,11-6.6,16.5-.8,2.1-1.7,4.2-2.5,6.3-.4.9-.7,1.8-1.1,2.7-1,2.5-2,5-3,7.5,69,.3,137.9.7,209,1-.8,3.9-1.7,7-3.1,10.7-.4,1.1-.8,2.2-1.3,3.3q-.7,1.7-1.4,3.5c-3.2,8.2-6.3,16.4-9.2,24.8-1.2,3.3-2.5,6.6-3.8,9.9-1.9,4.7-3.7,9.4-5.5,14.1-1.5,3.8-3,7.6-4.5,11.4-2.8,6.9-5.4,13.8-8.1,20.7-.5,1.3-1,2.7-1.6,4-1.5,3.9-3,7.8-4.5,11.7-.5,1.2-.9,2.4-1.4,3.6-2.2,5.8-4.5,11.6-6.6,17.5-3.4,9.1-7.2,18-11,26.9q-103.9.5-210,1c-1.3,3.6-2.6,7.3-4,11-1.3,3.3-2.7,6.5-4.2,9.7-3,6.5-5.5,13.1-8.1,19.8-1.5,3.9-3,7.7-4.6,11.6-2.6,6.6-5.2,13.2-7.8,19.8-.9,2.2-1.8,4.5-2.6,6.7-.5,1.4-1.1,2.8-1.6,4.1-1.1,2.7-2.1,5.4-3.2,8.1-1,2.6-1.9,5.2-2.7,7.8-1.3,4-2.8,7.7-4.6,11.5-2.8,5.8-4.7,11.8-6.6,17.9-.6,2-1.3,4-2.1,5.9-.7.3-1.3.7-2,1q-.8,1.8-1.4,4c-1.2,4-2.8,7.7-4.6,11.5-1.3,3-2.2,6.1-3.3,9.1-1.3,3.8-2.7,7.4-4.2,11.1-.6,1.6-1.2,3.1-1.8,4.7-1.1,2.8-2.2,5.7-3.4,8.5q-.7,1.7-1.4,3.5c-.4,1-.8,2-1.2,3.1q-1,2.5-.8,5.5h-2c-.2.6-.4,1.1-.6,1.7-.3.8-.5,1.5-.8,2.3-.2.7-.5,1.5-.7,2.2-2.5,7.2-5.3,14.2-8,21.2-.4,1-.8,2-1.2,3-.8,2.1-1.6,4.2-2.4,6.2-1.2,3.2-2.5,6.3-3.7,9.5-.8,2-1.6,4.1-2.4,6.1-.4.9-.7,1.9-1.1,2.8-.4.9-.7,1.8-1.1,2.7-.3.9-.7,1.7-1,2.6-1.4,3.5-2.8,6.9-4.2,10.4q-.9,2.2-1.3,4.4t-2.5,3.8c-1,2.5-1.8,5-2.7,7.5-4.2,12.3-9,24.4-14.1,36.4-1.8,4.4-3.5,8.9-5.1,13.4-.5,1.3-.9,2.5-1.4,3.8-.5,1.3-.9,2.6-1.3,3.9q-.7,1.9-2.4,5c-5.3,1.5-10.9,1.1-16.4,1-1,0-2.1,0-3.1,0-3.4,0-6.8,0-10.2-.1-2.4,0-4.7,0-7.1,0-6.2,0-12.4-.1-18.7-.2-6.4,0-12.7-.1-19.1-.2-12.5-.1-24.9-.3-37.4-.4q3.1-10.6,4.8-14.9c.3-.8.7-1.7,1-2.6q.5-1.3,1.1-2.7c.4-1,.8-1.9,1.2-2.9,1.3-3.2,2.5-6.4,3.8-9.5.9-2.3,1.8-4.5,2.7-6.8,1.9-4.8,3.8-9.5,5.6-14.3,2.9-7.3,5.7-14.5,8.6-21.8q.7-1.8,1.4-3.6c.9-2.4,1.9-4.8,2.8-7.2,6.8-17.4,13.7-34.9,20.6-52.3,6.2-15.8,12.4-31.5,18.6-47.3,6.2-15.9,12.5-31.9,18.8-47.8.5-1.2.9-2.3,1.4-3.5,2.3-5.9,4.6-11.8,7-17.7,4.1-10.5,8.3-21.1,12.4-31.6,1.4-3.5,2.7-7,4.1-10.4,4.2-10.7,8.4-21.3,12.6-32q17.4-44.2,26.1-66.3c8.6-21.8,17.2-43.7,25.8-65.5,4.2-10.6,8.3-21.2,12.5-31.8,2.3-5.8,4.6-11.7,6.9-17.5.9-2.3,1.8-4.7,2.8-7,.5-1.2.9-2.3,1.4-3.5q70.1-178.5,71.5-182c.9-2.3,1.8-4.7,2.8-7,2.3-5.8,4.6-11.6,6.9-17.5,4.2-10.7,8.4-21.3,12.6-32q17.6-44.9,26.1-66.2c4.1-10.4,8.2-20.8,12.3-31.3.2-.6.5-1.3.8-1.9,2.7-6.9,5.4-13.9,8.2-20.8.5-1.2.9-2.3,1.4-3.6.9-2.2,1.7-4.4,2.6-6.6.4-1,.8-2,1.2-3q.5-1.3,1-2.6c1.7-4.4,3.5-8.7,5.2-13.1,13.2-.3,26.4-.7,40-1,1.5-3.9,3-7.8,4.6-11.8,1.2-3.1,2.5-6.3,3.7-9.4,1.3-3.3,2.6-6.6,3.9-9.9,1.5-3.8,3-7.6,4.5-11.4.5-1.2.9-2.3,1.4-3.5,3.2-8.1,6.6-16.1,10-24.1Z"/>
      <path class="cls-2" d="M780,461h370q-10,31-14,41c-.8,2.5-1.5,5-2.2,7.5-.8,2.5-1.7,4.9-2.7,7.3-2,4.9-3.5,9.9-5,14.9-.9,3-2,5.9-3.1,8.8-1.8,4.9-3.5,9.9-5.3,14.9-.6,1.9-1.3,3.7-1.9,5.6-.7,2-1.4,3.9-2,5.9-7,20.2-14.1,40.3-21.3,60.4-.3.9-.6,1.7-.9,2.6-.9,2.4-1.7,4.8-2.6,7.3-.2.7-.5,1.4-.7,2.1-1.2,3.4-2.5,6.7-3.7,10.1-1.1,3-1.8,5.6-2.4,8.7-.6,1.5-1.2,3.1-1.8,4.6-2,4.9-3.7,9.8-5.3,14.9q-.9,2.6-2.9,5.6,0,1.2,0,2.4t-1.4,4.8c-2.1,3.6-3.4,7.3-4.7,11.2-1.4,4.2-2.8,8.3-4.6,12.4-1.2,2.8-1.9,5.1-2.3,8.1-.8,4.3-2.2,7.9-4,11.9-1.7,3.6-2.8,7.4-4,11.2h-2c0,1.1-.1,2.1-.2,3.2-.8,6.1-3,11.6-5.1,17.3-.4,1.1-.8,2.2-1.2,3.3-1.6,4.3-3.2,8.5-5,12.7-2.3,5.6-4,11.4-5.7,17.1-1.6,5.3-3.5,10.3-5.8,15.3-1,2.2-1.7,4.5-2.4,6.9-.9,3.3-2,6.5-3.4,9.6-1.9,4.6-3.3,9.2-4.6,13.9-1.6,5.5-3.3,10.8-5.5,16-4.8,11.7-8.6,23.9-12.7,35.9q-8.7,25.1-12.9,36c-2.9,7.7-5.6,15.6-8.3,23.4-2,5.7-4,11.5-6.2,17.1-1,2.7-1.9,5.4-2.9,8.1-.5,1.5-1.1,3-1.6,4.5-.3.7-.5,1.5-.8,2.2-2.7,7.7-5.4,15.3-8.4,22.9-1.5,3.7-2.8,7.5-3.9,11.3-1.4,4.8-3.3,9.3-5.2,13.9-4,9.6-7.2,19.5-10.2,29.5-1.2,3.8-2.4,7.5-3.9,11.1-5,12.1-9,24.7-13.1,37.2-1.2,3.7-2.5,7.3-4,10.9-2.7,6.6-5,13.3-7.4,20-.5,1.3-.9,2.6-1.4,3.9-1.1,3.2-2.2,6.3-3.4,9.5h-1c-.1-36.2-.2-72.4-.3-108.6,0-4.3,0-8.6,0-12.8,0-.9,0-1.7,0-2.6,0-13.8,0-27.6-.1-41.3,0-14.1,0-28.3,0-42.4,0-8.7,0-17.4,0-26.2,0-6,0-12,0-18,0-3.5,0-6.9,0-10.4q-.2-25.9,5.6-36.7c.6-1.5,1.2-3.1,1.7-4.7.3-.7.5-1.4.8-2.1.2-.7.5-1.4.8-2.1.3-.8.5-1.5.8-2.3.9-2.4,1.7-4.8,2.6-7.1.9-2.4,1.7-4.8,2.6-7.2.5-1.5,1.1-3,1.6-4.4,1.5-4,2.9-8.1,4.5-12.1,1.2-3.2,2.4-6.5,3.6-9.7.3-.7.5-1.4.8-2.1.8-2.2,1.6-4.4,2.4-6.7,1.1-2.9,2.1-5.9,3.2-8.8.2-.7.5-1.3.7-2,1.4-4,2.9-7.9,4.4-11.9.9-2.4,1.8-4.8,2.6-7.2.3-.9.7-1.9,1-2.8.3-.9.7-1.9,1-2.9q3.8-10.5,5.5-15c1.9-5,3.7-10,5.5-15,1.4-3.7,2.7-7.5,4.1-11.2.3-.9.7-1.9,1-2.8,1.9-5.3,3.9-10.7,5.9-16,.6-1.8,1.3-3.5,1.9-5.3.3-.9.7-1.9,1-2.8.3-.9.7-1.9,1-2.9.7-1.8,1.3-3.7,2-5.5.3-.9.7-1.8,1-2.8l15-41.2c.3-.9.7-1.8,1-2.7.7-1.8,1.4-3.7,2-5.5,1.9-5.2,3.7-10.3,5.2-15.6,1.1-3.6,2.5-7.1,3.8-10.6-20.1.3-40.3.7-61,1-3.3,8-6.5,15.8-9.2,24-.4,1-.7,2-1.1,3.1q-1.7,4.9-3.1,9.8c-.8,3-1.9,5.9-2.9,8.8-.2.6-.5,1.3-.7,2-.5,1.4-1,2.7-1.5,4.1-.8,2.1-1.5,4.1-2.3,6.2-.5,1.3-1,2.7-1.5,4-.4,1.2-.9,2.4-1.3,3.6-.9,2.4-1.9,4.8-2.9,7.2-1.4,3.2-2.4,6.4-3.4,9.8-1.4,4.7-3.1,9-5,13.5-1.1,3.3-2,6.6-3,9.9-.9,3-2,5.9-3.1,8.8-.9,2.6-1.8,5.1-2.6,7.7q-3.1,9.6-5.3,14.2c-2.1,4.5-3.5,9.2-4.9,14-1,3.3-2,6.7-3.1,10-.3,1-.6,1.9-.9,2.9q-.9,2.5-2.9,5.5c-.6,1.9-1.1,3.8-1.6,5.7-3.1,11-7.1,21.7-10.9,32.5-.8,2.2-1.5,4.3-2.3,6.5-2.8,7.7-5.5,15.5-8.3,23.2-1.3,3.6-2.6,7.3-3.9,11-.3,1-.7,1.9-1,2.9-.3,1-.7,1.9-1,2.9-.3,1-.7,1.9-1,2.9-1.5,4.4-3,8.8-4.5,13.3-1.1,3.4-2.5,6.8-3.9,10.1-1.9,4.4-3.4,8.8-4.7,13.4-2.1,7.3-4.8,14.5-7.3,21.7-.3.8-.6,1.7-.9,2.6-1.6,4.5-3.2,9-4.9,13.4-1.2,3.3-2.4,6.7-3.6,10.1-1.9,5.5-3.9,10.9-5.8,16.4-1.6,4.5-3.2,9-4.6,13.5-.7,2-1.4,3.9-2.1,5.8-1.3,3.4-2.4,6.8-3.6,10.2-1.8,5.5-3.7,10.9-5.9,16.3-2.4,5.8-4.3,11.6-6,17.6-1.1,3.5-2.6,6.8-4,10.2-1,2.8-2,5.5-3,8.3q-.4,1.1-.8,2.3c-1.6,4.7-3.2,9.4-4.5,14.2q-.7,2.3-2.1,5.3c-2.7,6.1-4.6,12.6-6.6,18.9-1.6,4.7-3.1,9.4-5,14-2.9,7.2-5.2,14.6-7.6,21.9-2.2,6.6-4.6,13.1-7.3,19.5-1.6,3.8-2.9,7.7-4.1,11.7h-1c0-34.4-.2-68.7-.2-103.1,0-4.1,0-8.1,0-12.2,0-.8,0-1.6,0-2.4,0-13.1,0-26.1,0-39.2,0-13.4,0-26.8,0-40.3,0-8.3,0-16.6,0-24.8,0-5.7,0-11.4,0-17,0-3.3,0-6.5,0-9.8,0-3.6,0-7.1,0-10.7q0-1.5,0-3.1c0-6.9,1.6-12.1,4.5-18.4.8-1.9,1.5-3.9,2.3-5.8.4-1,.8-2.1,1.2-3.1.4-1.1.9-2.2,1.3-3.3.5-1.2.9-2.3,1.4-3.5,1.2-3.1,2.4-6.2,3.6-9.2,1.2-3,2.4-6.1,3.6-9.1q5.4-13.8,10.9-27.7c.7-1.9,1.5-3.8,2.3-5.7.9-2.4,1.9-4.8,2.8-7.1,2.2-5.6,4.5-11.3,6.7-16.9,1.7-4.4,3.5-8.7,5.2-13.1.4-1,.8-2,1.2-3,1.2-3.1,2.4-6.2,3.6-9.3,1.6-4.1,3.2-8.2,4.8-12.3q.5-1.4,1.1-2.8c2-5.2,4.1-10.4,6.2-15.6,1.5-3.7,2.9-7.5,4.4-11.3,1.8-4.6,3.6-9.3,5.5-13.9,1.7-4.3,3.4-8.6,5-12.9q5-13.3,7.7-19c2.4-5.2,4.3-10.5,6.1-15.9,1.9-5.6,4-10.9,6.2-16.4q4.9-12.9,10-26-28.2.5-57,1c-4.4,11-8.7,21.8-12.6,33-1.8,5.2-3.9,10.3-6,15.5-3,7.5-6,15-8.4,22.7-1.2,3.7-2.6,7.2-4.2,10.8-3.1,6.5-5.4,13.3-7.8,20.2-2,5.6-4.2,10.7-6.9,16-.7,2.3-1.4,4.7-2,7-1,2.7-2,5.3-3,8-3.3,8.5-6.6,17.1-9.8,25.7-.9,2.4-1.8,4.7-2.7,7.1-1.4,3.7-2.8,7.3-4.1,11-1.3,3.6-2.7,7.1-4,10.7-.4,1.1-.8,2.2-1.2,3.3-.4,1-.8,2-1.2,3.1-.3.9-.7,1.8-1,2.7-1,2.5-2,5-3,7.5-.6,1.6-1.2,3.1-1.8,4.7-.3.9-.7,1.8-1.1,2.7-1.6,4.1-3.2,8.2-4.8,12.4-.8,2.2-1.7,4.3-2.5,6.5-1.2,3.1-2.4,6.3-3.6,9.4-.4,1-.7,1.9-1.1,2.9-2.2,5.8-4.3,11.7-6.2,17.6-1.3,3.9-3,7.7-4.6,11.5-1.5,3.7-2.9,7.4-4.3,11.1-2.4,6.6-5,13.2-7.7,19.7-1.5,3.8-3,7.7-4.4,11.5q-6.2,16.6-9,23.6c-1.4,3.4-2.7,6.9-4,10.4-1.5,4-3,7.9-4.4,11.9q-.6,1.5-1.2,3.1c-2.1,5.6-4.3,11.2-6.5,16.7-1.4,3.4-2.6,6.9-3.9,10.3-1.9,5.1-3.9,10.2-5.9,15.3-1.4,3.5-2.7,7-4,10.6-1.8,4.7-3.6,9.4-5.6,14.1-2.1,4.9-3.8,9.8-5.6,14.8-1.7,5-3.6,10-5.8,14.8-1.4,3.1-2.5,6.3-3.7,9.4-3.9,10.4-7.9,20.7-11.8,31-.7,1.9-1.5,3.8-2.2,5.7-.7,1.9-1.4,3.7-2.2,5.6-.4.9-.7,1.8-1.1,2.8-1.7,4.4-3.4,8.8-5.1,13.2-.3.8-.6,1.6-1,2.5-.6,1.5-1.2,3-1.8,4.5-1.5,3.9-2.9,7.8-4.2,11.8h-1c-.3-33.7-.6-67.5-.8-101.2,0-4,0-8,0-12,0-.8,0-1.6,0-2.4,0-12.8-.2-25.6-.3-38.5-.1-13.2-.2-26.4-.3-39.6,0-7.4,0-14.8-.2-22.2-.5-31.7,0-59.7,14.8-88.4,2.7-5.4,4.7-11,6.8-16.6.7-1.7,1.3-3.3,2-5,1.5-3.8,3-7.7,4.5-11.5,1.8-4.7,3.6-9.3,5.5-13.9,1.2-3,2.4-6.1,3.5-9.1,1.8-4.7,3.6-9.3,5.5-13.9,1.2-3,2.4-6.1,3.5-9.1,1.8-4.7,3.6-9.3,5.5-13.9,1.2-3,2.3-6,3.5-9,1.5-4,3.2-7.9,5-11.8,2.2-4.7,3.9-9.4,5.6-14.2,2-5.8,4.2-11.3,6.8-16.8,3.8-8.4,6.8-17.2,9.8-25.9,1.1-2.9,2.3-5.8,3.5-8.7,3.8-9.1,7.4-18.4,11-27.6,2.2-5.7,4.5-11.5,6.7-17.2.4-1.1.9-2.3,1.4-3.5,3.7-9.5,7.5-19,11.2-28.5,4.4-11.2,8.8-22.4,13.2-33.6q.4-.9.7-1.9c2.7-6.8,5.4-13.7,8.1-20.5,2.5-6.4,5.1-12.9,7.6-19.3q.5-1.3,1-2.6c.9-2.2,1.7-4.3,2.6-6.5.5-1.1.9-2.3,1.4-3.5q1-2.4,2-3.4c2.1,0,4.1-.1,6.2,0,1.3,0,2.5,0,3.8,0,1.3,0,2.7,0,4,0,1.3,0,2.7,0,4,0,3.3,0,6.6,0,9.9,0,.2-.7.4-1.3.6-2,1.3-4.6,2.7-9,4.9-13.4,1.8-3.8,3.3-7.6,4.6-11.6,2.1-6.6,4.9-12.8,8-19Z"/>
      <path class="cls-4" d="M574,159c20.2,0,40.3,0,60.5,0q1.2,0,2.4,0c62.4,0,124.8.2,187.2.6,1.1,0,2.2,0,3.3,0,27.9.2,55.8.3,83.6.5q-1,5-6,17h-323c-5,12.9-9.9,25.7-15,39q-11.8,29.8-13,31c-3,0-5.9.1-8.8,0q-1.3,0-2.7,0c-2.8,0-5.7,0-8.5,0-1.9,0-3.8,0-5.8,0-4.7,0-9.4,0-14.2,0-.1.7-.2,1.3-.3,2-.9,3.9-2.3,7.5-3.8,11.1-.3.8-.6,1.6-.9,2.4-1,2.6-2.1,5.3-3.1,7.9-.7,1.9-1.5,3.7-2.2,5.6-2.2,5.7-4.5,11.3-6.7,17-.6,1.6-1.3,3.2-1.9,4.8-2.4,6.1-4.8,12.1-7.2,18.2-5.2,13.1-10.3,26.2-15.5,39.4-1.7,4.3-3.4,8.7-5.1,13-.4,1.1-.9,2.2-1.3,3.3-5.1,13-10.2,26-15.3,39.1-.5,1.2-.9,2.4-1.4,3.6-5.7,14.4-11.3,28.8-17,43.2-5.3,13.4-10.6,26.8-15.8,40.2-13.2,33.8-26.5,67.6-39.8,101.3-8.6,21.8-17.2,43.7-25.8,65.5-4.2,10.6-8.3,21.2-12.5,31.8-2.3,5.8-4.6,11.6-6.8,17.4q-.7,1.7-1.4,3.5c-2.8,7.2-5.7,14.5-8.5,21.7-2.4,6.1-4.8,12.2-7.2,18.3-.5,1.2-.9,2.4-1.4,3.6-5.5,13.9-10.9,27.8-16.4,41.6-5.6,14.3-11.2,28.6-16.8,42.9-5.4,13.8-10.9,27.7-16.3,41.5-7.2,18.1-14.3,36.3-21.4,54.4-5.2,13.4-10.5,26.8-15.8,40.1-2.2,5.5-4.3,11-6.5,16.5-2.7,6.8-5.4,13.6-8,20.5-1,2.5-2,5-2.9,7.5-.2.6-.5,1.2-.7,1.9-3.7,9.3-7.3,18.6-11,27.9q-16.3,41.6-24,61.1c-.6,1.6-1.3,3.3-1.9,4.9-.9,2.2-1.7,4.4-2.6,6.6q-.7,1.8-1.5,3.7t-2.1,4.8h-14c.8-4.9,1.9-8.9,3.7-13.4q.4-1.1.8-2.2c.9-2.4,1.9-4.8,2.8-7.2.7-1.7,1.3-3.5,2-5.2,6.3-16.4,12.8-32.7,19.3-49,5.7-14.5,11.4-28.9,17.1-43.4.5-1.2.9-2.3,1.4-3.5,2.3-5.9,4.7-11.9,7-17.8,4.1-10.5,8.3-21.1,12.4-31.6,2.3-5.8,4.6-11.7,6.9-17.5.9-2.3,1.8-4.7,2.8-7q.7-1.7,1.4-3.5,26.1-66.5,27.5-70c.9-2.3,1.8-4.7,2.8-7,2.3-5.8,4.6-11.6,6.9-17.5,4.2-10.7,8.4-21.3,12.6-32q17.4-44.2,26.1-66.3c8.6-21.8,17.2-43.7,25.8-65.5,4.2-10.6,8.3-21.2,12.5-31.8,2.3-5.8,4.6-11.7,6.9-17.5.9-2.3,1.8-4.7,2.8-7,.5-1.2.9-2.3,1.4-3.5q70.1-178.5,71.5-182c.9-2.3,1.8-4.7,2.8-7,2.3-5.8,4.6-11.6,6.9-17.5,4.2-10.7,8.4-21.3,12.6-32q17.6-44.9,26.1-66.2c4.1-10.4,8.2-20.8,12.3-31.3.2-.6.5-1.3.8-1.9,2.7-6.9,5.4-13.9,8.2-20.8.5-1.2.9-2.3,1.4-3.6.9-2.2,1.7-4.4,2.6-6.6.4-1,.8-2,1.2-3q.5-1.3,1-2.6c1.7-4.4,3.5-8.7,5.2-13.1,13.2-.3,26.4-.7,40-1,1.5-3.9,3-7.8,4.6-11.8,1.2-3.1,2.5-6.3,3.7-9.4,1.3-3.3,2.6-6.6,3.9-9.9,1.5-3.8,3-7.6,4.5-11.4.5-1.2.9-2.3,1.4-3.5,3.2-8.1,6.6-16.1,10-24.1Z"/>
      <path class="cls-4" d="M780,461h370q-5,15-6,17h-356c-1,3-2,5.9-3,9-1.1,2.9-2.2,5.8-3.3,8.7-.3.8-.6,1.6-.9,2.4-.6,1.6-1.3,3.3-1.9,4.9-1,2.5-2,5-2.9,7.5-.6,1.6-1.2,3.2-1.9,4.8-.3.8-.6,1.5-.9,2.3q-2.1,5.3-3.2,6.4c-2.1.2-4.1.3-6.2.3-1.3,0-2.5,0-3.8.1-1.3,0-2.7,0-4,.1-1.3,0-2.7,0-4,.1-3.3.1-6.6.2-9.9.3-5.2,13.3-10.4,26.6-15.7,39.9-8.3,21.3-16.7,42.5-25.1,63.7-5,12.6-9.9,25.2-14.9,37.8-2.2,5.5-4.3,11.1-6.5,16.6-.9,2.2-1.7,4.3-2.6,6.5-.4,1.1-.9,2.2-1.3,3.3-1.4,3.6-2.8,7.1-4.2,10.7-1,2.5-2,5-2.9,7.5-.2.6-.5,1.2-.7,1.9-3.1,8-6.3,15.9-9.4,23.9-1.8,4.7-3.7,9.4-5.5,14.1-.9,2.3-1.8,4.7-2.8,7-4.9,12.4-9.8,24.9-14.7,37.3-1.7,4.3-3.4,8.6-5,12.8-.4,1-.8,2.1-1.2,3.2-4.5,11.6-9.1,23.2-13.7,34.8-.4,1.1-.8,2.1-1.3,3.2q-4.7,11.9-7,17.7c-.7,1.8-1.4,3.7-2.1,5.5-1.8,4.7-3.7,9.1-6,13.5-11,21.9-8.7,46.3-8.4,70.1,0,6.4,0,12.8,0,19.2,0,10.7,0,21.5.1,32.2,0,.7,0,1.4,0,2.1,0,2.7,0,5.5,0,8.2,0,7.6,0,15.1.1,22.7,0,.7,0,1.4,0,2.1,0,11.4,0,22.7.1,34.1,0,7.6,0,15.2.1,22.8,0,4.7,0,9.5,0,14.2,0,2.2,0,4.3,0,6.5.2,14.4-1.8,25.8-7.8,38.9h-1c-.3-33.7-.6-67.5-.8-101.2,0-4,0-8,0-12,0-.8,0-1.6,0-2.4,0-12.8-.2-25.6-.3-38.5-.1-13.2-.2-26.4-.3-39.6,0-7.4,0-14.8-.2-22.2-.5-31.7,0-59.7,14.8-88.4,2.7-5.4,4.7-11,6.8-16.6.7-1.7,1.3-3.3,2-5,1.5-3.8,3-7.7,4.5-11.5,1.8-4.7,3.6-9.3,5.5-13.9,1.2-3,2.4-6.1,3.5-9.1,1.8-4.7,3.6-9.3,5.5-13.9,1.2-3,2.4-6.1,3.5-9.1,1.8-4.7,3.6-9.3,5.5-13.9,1.2-3,2.3-6,3.5-9,1.5-4,3.2-7.9,5-11.8,2.2-4.7,3.9-9.4,5.6-14.2,2-5.8,4.2-11.3,6.8-16.8,3.8-8.4,6.8-17.2,9.8-25.9,1.1-2.9,2.3-5.8,3.5-8.7,3.8-9.1,7.4-18.4,11-27.6,2.2-5.7,4.5-11.5,6.7-17.2.4-1.1.9-2.3,1.4-3.5,3.7-9.5,7.5-19,11.2-28.5,4.4-11.2,8.8-22.4,13.2-33.6q.4-.9.7-1.9c2.7-6.8,5.4-13.7,8.1-20.5,2.5-6.4,5.1-12.9,7.6-19.3q.5-1.3,1-2.6c.9-2.2,1.7-4.3,2.6-6.5.5-1.1.9-2.3,1.4-3.5q1-2.4,2-3.4c2.1,0,4.1-.1,6.2,0,1.3,0,2.5,0,3.8,0,1.3,0,2.7,0,4,0,1.3,0,2.7,0,4,0,3.3,0,6.6,0,9.9,0,.2-.7.4-1.3.6-2,1.3-4.6,2.7-9,4.9-13.4,1.8-3.8,3.3-7.6,4.6-11.6,2.1-6.6,4.9-12.8,8-19Z"/>
      <path class="cls-5" d="M848.2,628.9c2.5,0,5.1,0,7.6,0,1.1,0,2.1,0,3.2,0-4.1,11.8-8.4,23.4-13.1,35-.7,1.7-1.3,3.4-2,5-1.3,3.4-2.7,6.8-4,10.2-2.7,6.8-5.4,13.7-8.1,20.5-.3.6-.5,1.3-.8,2-5.6,14.2-11.2,28.4-16.8,42.7-6.7,17.1-13.4,34.2-20.2,51.4-.5,1.2-.9,2.3-1.4,3.5-3.3,8.3-6.5,16.6-9.8,24.8-3.5,8.8-6.9,17.6-10.4,26.4-1.4,3.5-2.7,7-4.1,10.5-.9,2.2-1.7,4.4-2.6,6.6-.4.9-.7,1.9-1.1,2.8-.8,1.9-1.5,3.9-2.2,5.8-1.2,3-2.4,5.9-3.8,8.8-6.3,14.3-8.1,26.3-7.8,41.8,0,2.3,0,4.5,0,6.8,0,4.8,0,9.7,0,14.5,0,7.7,0,15.3,0,23,0,10.7,0,21.5.1,32.2,0,.7,0,1.4,0,2.1,0,2.7,0,5.5,0,8.2,0,7.6,0,15.1.1,22.7,0,.7,0,1.4,0,2.1,0,11.4,0,22.7,0,34.1,0,7.6,0,15.2.1,22.8,0,4.7,0,9.5,0,14.2,0,2.2,0,4.4,0,6.5.2,14.7-2,26.5-7.8,40.1h-1c0-34.4-.2-68.7-.2-103.1,0-4.1,0-8.1,0-12.2,0-.8,0-1.6,0-2.4,0-13.1,0-26.1,0-39.2,0-13.4,0-26.8,0-40.3,0-8.3,0-16.6,0-24.8,0-5.7,0-11.4,0-17,0-3.3,0-6.5,0-9.8,0-3.6,0-7.1,0-10.7q0-1.5,0-3.1c0-6.9,1.6-12.1,4.5-18.4.8-1.9,1.5-3.9,2.3-5.8.4-1,.8-2.1,1.2-3.1q.6-1.6,1.3-3.3c.5-1.2.9-2.3,1.4-3.5,1.2-3.1,2.4-6.2,3.6-9.2,1.2-3,2.4-6.1,3.6-9.1q5.4-13.8,10.9-27.7c.7-1.9,1.5-3.8,2.3-5.7.9-2.4,1.9-4.8,2.8-7.1,2.2-5.6,4.5-11.3,6.7-16.9,1.7-4.4,3.5-8.7,5.2-13.1.4-1,.8-2,1.2-3,1.2-3.1,2.4-6.2,3.6-9.3,1.6-4.1,3.2-8.2,4.8-12.3.4-.9.7-1.8,1.1-2.8,2-5.2,4.1-10.4,6.2-15.6,1.5-3.7,2.9-7.5,4.4-11.3,1.8-4.6,3.6-9.3,5.5-13.9,1.7-4.3,3.4-8.6,5-12.9q5-13.3,7.7-19c2.8-5.9,4.8-12.1,7-18.2q8-23,13.6-23.1Z"/>
      <path class="cls-1" d="M994,625h14c-.7,4-1.2,6.9-2.6,10.6-.3.9-.7,1.7-1,2.6-.4.9-.7,1.9-1.1,2.8-.4,1-.7,2-1.1,3-.8,2.2-1.6,4.3-2.4,6.5-2.2,5.8-4.4,11.6-6.5,17.4-.4,1.2-.9,2.4-1.3,3.6-4.2,11.3-8.4,22.7-12.5,34.1-5.7,15.9-11.5,31.7-17.3,47.6-1.5,4.1-3,8.2-4.5,12.3-.4,1-.8,2.1-1.1,3.1-4.3,11.6-8.5,23.3-12.8,34.9-8,21.9-16,43.8-24.1,65.6-.4,1.2-.9,2.4-1.3,3.6-.8,2.2-1.6,4.4-2.4,6.6q-.5,1.5-1.1,3t-1,2.6c-1.2,3.3-1.9,5.9-1.9,9.4,0,.9,0,1.7,0,2.6,0,.9,0,1.9,0,2.9v3c0,3.4,0,6.7,0,10.1,0,2.4,0,4.8,0,7.2,0,4.5,0,9.1,0,13.6,0,8.9,0,17.8,0,26.8,0,1.4,0,2.8,0,4.2,0,2.8,0,5.7,0,8.5,0,7.3,0,14.6,0,22q0,1.1,0,2.2c0,11.9,0,23.7,0,35.6,0,12.2,0,24.4,0,36.6,0,7.5,0,15,0,22.5,0,5.8,0,11.6,0,17.3,0,2.4,0,4.7,0,7.1.1,15.2-1.9,27.5-7.9,41.5h-1c-.1-36.2-.2-72.4-.3-108.6,0-4.3,0-8.6,0-12.8,0-.9,0-1.7,0-2.6,0-13.8,0-27.6-.1-41.3,0-14.1,0-28.3,0-42.4,0-8.7,0-17.4,0-26.2,0-6,0-12,0-18,0-3.5,0-6.9,0-10.4q-.2-25.9,5.6-36.7c.6-1.5,1.2-3.1,1.7-4.7.3-.7.5-1.4.8-2.1.2-.7.5-1.4.8-2.1.3-.8.5-1.5.8-2.3.9-2.4,1.7-4.8,2.6-7.1.9-2.4,1.7-4.8,2.6-7.2.5-1.5,1.1-3,1.6-4.4,1.5-4,2.9-8.1,4.5-12.1,1.2-3.2,2.4-6.5,3.6-9.7.3-.7.5-1.4.8-2.1.8-2.2,1.6-4.4,2.4-6.7,1.1-2.9,2.1-5.9,3.2-8.8.2-.7.5-1.3.7-2,1.4-4,2.9-7.9,4.4-11.9.9-2.4,1.8-4.8,2.6-7.2.3-.9.7-1.9,1-2.8.3-.9.7-1.9,1-2.9q3.8-10.5,5.5-15c1.9-5,3.7-10,5.5-15,1.4-3.7,2.7-7.5,4.1-11.2.3-.9.7-1.9,1-2.8,1.9-5.3,3.9-10.7,5.9-16,.6-1.8,1.3-3.5,1.9-5.3q.5-1.4,1-2.8.5-1.4,1-2.9c.7-1.8,1.3-3.7,2-5.5.3-.9.7-1.8,1-2.8q11-30.2,12-33c.7-1.8,1.3-3.6,2-5.5,2.5-6.9,5.2-13.6,8-20.3Z"/>
      <path d="M474,630h196q-1,5-6,17h-196q1-5,6-17Z"/>
    </g>
  </g>
</svg>